<svg width="115" height="82" viewBox="0 0 115 82" fill="none" xmlns="http://www.w3.org/2000/svg">
<rect width="115" height="82" fill="#1E1E1E"/>
<rect x="-301" y="-269" width="771" height="730" fill="white"/>
<path d="M23.5905 33.9058C23.5905 43.8469 31.6494 51.9058 41.5905 51.9058L68.5905 51.9058C71.3519 51.9058 73.5905 49.6672 73.5905 46.9058L73.5905 12.9058C73.5905 7.38297 69.1133 2.90581 63.5905 2.90582L28.5905 2.90582C25.8291 2.90582 23.5905 5.1444 23.5905 7.90582L23.5905 33.9058Z" fill="#FFF1DA"/>
<path d="M72.1744 47.8472C70.8161 48.1514 69.4931 48.715 68.2875 49.5024C65.1467 51.5037 63.3194 54.3604 64.2064 55.8826C65.0933 57.4047 68.3584 57.0154 71.4992 55.0141C72.7209 54.2545 73.8063 53.2837 74.6885 52.1617C75.0979 51.6196 75.1713 50.9442 74.8761 50.4393L73.7239 48.4619C73.4308 47.9554 72.8227 47.7145 72.1744 47.8472Z" fill="#D5D6DB"/>
<path d="M64.2874 20.8541C63.3025 21.0749 62.343 21.4837 61.4688 22.0547C59.1919 23.5055 57.8662 25.5769 58.5088 26.6797C59.1514 27.7825 61.5198 27.5 63.7964 26.0493C64.6823 25.4983 65.4692 24.794 66.1091 23.9803C66.4055 23.5874 66.4587 23.0981 66.2447 22.732L65.4104 21.3002C65.1981 20.933 64.7575 20.758 64.2874 20.8541Z" fill="#D5D6DB"/>
<path d="M51.4732 21.9845C51.254 21.9601 51.0202 22.0185 50.8174 22.148L45.4692 25.5562C45.0219 25.8404 44.8429 26.3878 45.0698 26.7789C45.1217 26.8686 45.1927 26.9451 45.2789 27.0041L58.4606 36.0891L76.2941 24.7244L51.4732 21.9845Z" fill="#029BC5"/>
<path d="M107.85 20.6999L59.3182 51.252L30.6055 62.6775L15.9623 65.5882L14.3514 62.851L95.2465 12.9044C97.6573 11.4095 100.343 10.4919 103.032 10.2448C104.209 10.1429 105.372 10.1821 106.493 10.3609C107.487 10.5116 108.43 10.8023 109.294 11.2244C110.258 11.7026 112.092 11.7578 112.687 12.7106C112.689 12.7091 114.091 17.0835 107.85 20.6999V20.6999Z" fill="#E1E6E9"/>
<path d="M59.9615 47.2094L38.9663 80.6794C38.704 81.1496 38.8597 81.676 39.3136 81.8553C39.5921 81.9653 39.9331 81.9218 40.2195 81.7399L45.5635 78.3497C46.5913 77.6973 47.5014 76.8688 48.2376 75.9152L88.954 28.0462L59.9615 47.2094Z" fill="#029BC5"/>
<path d="M6.98191 46.092C6.63169 45.9723 6.2149 46.0344 5.86308 46.2584L1.44558 49.0718C0.843666 49.4549 0.603816 50.1913 0.909678 50.717C0.967953 50.8169 1.04365 50.9049 1.13439 50.9773L13.5112 60.8896L26.5242 52.7615L6.98191 46.092Z" fill="#029BC5"/>
<path d="M17.6595 62.6766L10.9981 72.0061C10.9004 72.1401 10.9234 72.3085 11.0493 72.3818C11.1401 72.4346 11.2642 72.4251 11.3649 72.3576L15.4932 69.7416C15.5253 69.7213 15.5543 69.6958 15.5783 69.6668L25.3118 57.832L17.6595 62.6766Z" fill="#029BC5"/>
<path d="M105.697 10.7631C104.542 10.5777 103.345 10.5381 102.132 10.6447C100.951 12.2958 100.196 14.1505 99.9427 16.0239C99.9241 16.4002 100.227 16.6711 100.62 16.6289C100.743 16.6157 100.864 16.5728 100.973 16.504L108.581 11.6597C107.692 11.2211 106.72 10.9193 105.697 10.7631Z" fill="#029BC5"/>
<path d="M89.1174 19.6712L94.0844 16.5343L98.711 24.4033L93.744 27.5403L89.1174 19.6712Z" fill="#D5D6DB"/>
<path d="M85.992 22.7834C85.3934 23.1626 85.1542 23.8914 85.458 24.4111L85.9504 25.2531C86.2742 25.7595 87.0135 25.8486 87.6017 25.4519C88.1616 25.0741 88.387 24.3874 88.1172 23.8804L87.6249 23.0384C87.3213 22.5192 86.5905 22.4049 85.992 22.7834V22.7834Z" fill="#3A556A"/>
<path d="M81.5275 25.5559C80.929 25.9351 80.6898 26.6638 80.9936 27.1836L81.4859 28.0255C81.8098 28.532 82.5491 28.6211 83.1373 28.2244C83.6972 27.8466 83.9226 27.1599 83.6528 26.6529L83.1605 25.8109C82.8566 25.2918 82.1258 25.1775 81.5275 25.5559V25.5559Z" fill="#3A556A"/>
<path d="M77.0617 28.3293C76.4638 28.7089 76.2254 29.4368 76.529 29.9561L77.0213 30.798C77.3452 31.3045 78.0845 31.3935 78.6727 30.9968C79.2326 30.6191 79.458 29.9324 79.1882 29.4254L78.6959 28.5834C78.392 28.0638 77.6605 27.95 77.0617 28.3293V28.3293Z" fill="#3A556A"/>
<path d="M72.5974 31.1016C71.9995 31.4813 71.7611 32.2092 72.0647 32.7285L72.557 33.5705C72.8809 34.0769 73.6202 34.166 74.2084 33.7693C74.7683 33.3915 74.9937 32.7048 74.7239 32.1978L74.2316 31.3558C73.9275 30.8363 73.1959 30.7225 72.5974 31.1016V31.1016Z" fill="#3A556A"/>
<path d="M68.1335 33.8743C67.5352 34.2541 67.2967 34.9823 67.6005 35.5018L68.0931 36.3442C68.3968 36.8634 69.128 36.9772 69.7264 36.5982C70.3248 36.2192 70.5637 35.491 70.26 34.9717L69.7674 34.1294C69.4645 33.6096 68.7335 33.4952 68.1347 33.8735C68.1342 33.8738 68.134 33.874 68.1335 33.8743Z" fill="#3A556A"/>
<path d="M63.6691 36.6468C63.0708 37.0266 62.8323 37.7548 63.1361 38.2743L63.6287 39.1166C63.9324 39.6359 64.6636 39.7496 65.262 39.3706C65.8604 38.9916 66.0993 38.2635 65.7956 37.7442L65.303 36.9019C65.0001 36.3821 64.2691 36.2676 63.6703 36.646C63.6698 36.6463 63.6693 36.6466 63.6691 36.6468Z" fill="#3A556A"/>
<path d="M59.2044 39.4193C58.6062 39.7991 58.3677 40.5273 58.6715 41.0468L59.1641 41.8891C59.4685 42.4079 60.2001 42.5204 60.7978 42.141C61.3945 41.7621 61.6329 41.0355 61.3307 40.5168L60.8381 39.6745C60.5346 39.1549 59.8033 39.0406 59.2044 39.4193Z" fill="#3A556A"/>
<path d="M54.7398 42.1918C54.1416 42.5716 53.9031 43.2998 54.2069 43.8193L54.6995 44.6617C55.0039 45.1804 55.7355 45.293 56.3332 44.9135C56.9299 44.5347 57.1683 43.808 56.8661 43.2894L56.3735 42.447C56.07 41.9274 55.3387 41.8131 54.7398 42.1918Z" fill="#3A556A"/>
<path d="M50.2755 44.9642C49.6773 45.344 49.4388 46.0722 49.7426 46.5917L50.2352 47.434C50.5396 47.9528 51.2712 48.0654 51.8689 47.6859C52.4657 47.3071 52.7041 46.5804 52.4018 46.0618L51.9092 45.2195C51.6054 44.7 50.8742 44.5857 50.2755 44.9642Z" fill="#3A556A"/>
<path d="M45.8097 47.7374C45.2114 48.1164 44.9725 48.8446 45.2761 49.3639L45.2768 49.365L45.7694 50.2073C46.0738 50.7261 46.8054 50.8387 47.4031 50.4592C47.9998 50.0803 48.2382 49.3537 47.936 48.835L47.4434 47.9927C47.1398 47.473 46.4086 47.3587 45.8097 47.7374Z" fill="#3A556A"/>
<path d="M41.3466 50.5091C40.7482 50.8881 40.5093 51.6163 40.8129 52.1355L40.8136 52.1366L41.3062 52.9789C41.6106 53.4977 42.3422 53.6103 42.94 53.2308C43.5367 52.852 43.7751 52.1253 43.4728 51.6067L42.9802 50.7644C42.6764 50.2449 41.9452 50.1306 41.3466 50.5091Z" fill="#3A556A"/>
</svg>
