<svg width="299" height="12" viewBox="0 0 299 12" fill="none" xmlns="http://www.w3.org/2000/svg">
<rect width="299" height="12" fill="#1E1E1E"/>
<rect x="-371" y="-434" width="1242" height="841" fill="white"/>
<mask id="mask0_0_1" style="mask-type:alpha" maskUnits="userSpaceOnUse" x="-8" y="0" width="380" height="12">
<rect x="-8" width="380" height="12" fill="#C4C4C4"/>
</mask>
<g mask="url(#mask0_0_1)">
<path d="M49.0772 -2.53796L50.0059 -2.69614L48.1987 -2.92292L49.065 -3.08892C49.9338 -3.0874 51.0593 -2.83866 51.6718 -2.97083C51.7467 -3.09879 50.8007 -3.13986 50.5593 -3.24181C50.3457 -3.34631 50.1714 -3.45013 50.0384 -3.55202C50.5115 -3.55092 51.0316 -3.52628 51.5679 -3.47953C52.2893 -3.40318 52.9968 -3.36607 53.6124 -3.37229C54.8713 -3.35167 56.0875 -3.37224 57.4562 -3.36771L57.0009 -3.67567L58.7648 -3.60362C58.9518 -3.58016 59.1746 -3.61789 59.3583 -3.58887C60.887 -3.34329 61.5339 -3.47711 62.2677 -3.58807C62.4182 -3.61678 62.5995 -3.63822 62.8067 -3.65182C64.8461 -3.593 66.685 -3.24878 68.5216 -3.07207C68.8672 -3.02695 69.1987 -2.96904 69.4927 -2.90243C70.1315 -2.77295 70.842 -2.66724 71.5593 -2.59497C72.2767 -2.52269 72.9778 -2.48616 73.5988 -2.48871C74.9719 -2.49157 76.5232 -2.40593 78.1026 -2.24008C78.5723 -2.18545 79.0422 -2.14941 79.4825 -2.13426C79.9229 -2.11911 80.3239 -2.12517 80.66 -2.15207L81.7278 -1.97627C82.1907 -2.04761 82.7776 -2.08675 83.453 -2.09131C84.1284 -2.09588 84.8781 -2.06577 85.6566 -2.00283C86.4863 -1.93455 87.3291 -1.88853 88.1899 -1.81634C89.9681 -1.67832 91.6987 -1.59392 93.328 -1.56575C95.7542 -1.48225 98.1247 -1.4177 100.572 -1.31361C102.104 -1.26336 103.596 -1.23573 105.039 -1.23085C106.769 -1.21119 108.639 -1.11605 110.561 -0.950019V-0.950019C110.47 -0.794239 109.627 -0.840261 109.062 -0.845533C107.237 -0.871425 105.37 -0.938519 103.493 -0.988921C102.647 -1.0086 101.825 -1.01605 101.031 -1.01122C99.7031 -1.01768 98.3033 -1.05919 96.8556 -1.13504C94.5686 -1.2185 92.3546 -1.25861 90.2363 -1.25498C90.0702 -1.24881 89.9181 -1.23788 89.7824 -1.22236C89.754 -1.20893 89.7485 -1.19198 89.7661 -1.17315C89.7838 -1.15433 89.8242 -1.13424 89.8833 -1.11484C89.9424 -1.09543 90.0184 -1.07735 90.1039 -1.06231C90.1894 -1.04728 90.2816 -1.0358 90.3717 -1.02897C91.213 -0.9234 92.1166 -0.810013 92.91 -0.794062C92.9407 -0.79287 92.9734 -0.790148 93.0057 -0.786091C93.038 -0.782033 93.0692 -0.776743 93.097 -0.770603C94.8731 -0.54773 96.3335 -0.585445 97.717 -0.549185C100.014 -0.451184 102.228 -0.405408 104.327 -0.412548C104.644 -0.412063 104.986 -0.399323 105.341 -0.37479C107.539 -0.275341 109.594 -0.264218 111.409 -0.341924C112.157 -0.361611 112.852 -0.405805 113.655 -0.406544C114.149 -0.409587 114.58 -0.437788 114.921 -0.489464C115.261 -0.541139 115.505 -0.615219 115.637 -0.707247C115.976 -0.658795 116.32 -0.615614 116.665 -0.57822C116.871 -0.556839 117.069 -0.55116 117.218 -0.562348C117.368 -0.573537 117.458 -0.600756 117.47 -0.638501C117.532 -0.744209 117.061 -0.797294 116.653 -0.842561C116.899 -0.865232 117.176 -0.878568 117.478 -0.88225C119.18 -0.906405 121.005 -0.877896 122.914 -0.797352C124.396 -0.700943 125.58 -0.779414 127.139 -0.643457C127.326 -0.619997 127.48 -0.65443 127.652 -0.662698C128.101 -0.706237 128.66 -0.716022 129.28 -0.6912C129.901 -0.666378 130.565 -0.607696 131.214 -0.520244C132.023 -0.759166 133.77 -0.486219 135.06 -0.461689C135.457 -0.340186 135.001 -0.361546 134.982 -0.328165C134.962 -0.294784 134.982 -0.328172 134.826 -0.347722C133.538 -0.175652 131.773 -0.138132 129.78 -0.240434C129.411 -0.24001 129.06 -0.232171 128.729 -0.216993C128.228 -0.195511 127.664 -0.197656 127.06 -0.223335C126.401 -0.242194 125.795 -0.233237 125.272 -0.196896C124.971 -0.197488 124.717 -0.179283 124.533 -0.143957C124.348 -0.108631 124.24 -0.0573292 124.217 0.00518043C124.418 0.0533695 124.641 0.0974635 124.877 0.135711C126.109 0.28673 127.337 0.34924 128.32 0.310943C130.031 0.244958 132.067 0.309349 133.886 0.286823C135.116 0.277697 136.425 0.303691 137.788 0.364319C137.788 0.364319 137.752 0.425517 137.749 0.431081C137.91 0.457578 138.079 0.478838 138.247 0.493643C138.247 0.493643 138.247 0.493644 138.263 0.465826C138.189 0.439112 138.088 0.413981 137.971 0.393343L137.566 0.342511C137.842 0.329282 138.099 0.289898 138.386 0.313961C138.99 0.358668 139.568 0.377541 140.085 0.369461C140.601 0.36138 141.045 0.326507 141.39 0.266937C142.002 0.19059 142.763 0.155871 143.624 0.165021C144.284 0.156686 144.919 0.138771 145.528 0.111367C145.528 0.111367 145.567 0.0446106 145.856 0.00912829C145.583 -0.0346349 145.298 -0.0703704 145.014 -0.0964388C143.781 -0.161567 142.545 -0.221133 141.334 -0.265661C140.887 -0.270471 140.468 -0.26301 140.083 -0.243425C139.017 -0.220505 137.82 -0.253034 136.56 -0.339116C136.56 -0.339116 136.311 -0.370394 136.186 -0.386034C136.54 -0.532788 137.758 -0.38587 138.251 -0.485256C138.551 -0.483446 139.079 -0.470949 139.061 -0.497113C139.02 -0.532028 139.015 -0.564463 139.047 -0.592092C139.078 -0.619721 139.146 -0.641862 139.244 -0.656923C139.342 -0.671984 139.469 -0.679597 139.615 -0.67921C139.761 -0.678823 139.923 -0.670444 140.09 -0.654683C141.477 -0.569419 142.783 -0.545708 143.929 -0.585002C144.363 -0.584243 144.85 -0.558972 145.281 -0.55265C145.545 -0.545035 145.786 -0.549271 145.991 -0.565122C147.032 -0.681865 148.434 -0.69039 149.985 -0.589418C150.735 -0.553117 151.435 -0.548262 152.051 -0.575103C152.488 -0.579908 152.674 -0.496907 152.985 -0.457806L154.309 -0.375382L152.609 -0.272103C152.973 -0.0354186 153.261 0.0426244 153.855 0.0573698C154.72 0.0796372 155.563 0.0896972 156.379 0.087487C156.982 0.0855416 157.48 0.0345694 158.297 0.125104C158.441 0.13987 158.58 0.14465 158.69 0.13864C159.647 0.058266 160.799 0.0398197 162.067 0.0845611C162.724 -0.0659467 163.842 0.0803861 164.877 0.198291C165.211 0.0849186 164.606 0.0328764 164.245 -0.0362984C165.11 -0.0292176 165.982 -0.0332607 166.876 -0.0167063C167.144 -0.0227333 167.452 -0.0124239 167.773 0.0134095C168.095 0.0392429 168.422 0.0798926 168.728 0.132182C168.878 0.165968 169.058 0.191396 169.232 0.203186C169.406 0.214976 169.56 0.212226 169.661 0.195505C170.125 0.146191 170.868 0.191611 171.251 0.108313C171.387 0.0891559 171.582 0.0864816 171.8 0.100757C172.019 0.115033 172.247 0.145336 172.443 0.186232V0.186232C172.228 0.198992 172.036 0.219085 171.873 0.246069C171.286 0.333724 171.502 0.480186 172.247 0.693119C173.391 0.681408 174.56 0.684734 175.62 0.644602C176.211 0.608577 176.935 0.619839 177.711 0.677123C178.487 0.734406 179.284 0.83544 180.013 0.968863C180.276 1.02017 180.577 1.0557 180.854 1.06841C181.132 1.08112 181.366 1.07007 181.511 1.03745C181.601 0.999726 181.629 0.951983 181.592 0.898361L180.845 0.804524C180.845 0.804524 180.874 0.754451 180.88 0.743324L181.956 0.734912C182.524 0.73462 183.118 0.749369 183.655 0.745167C184.445 0.717223 185.347 0.732799 186.304 0.790928C187.188 0.850533 188.056 0.895587 188.901 0.925693C189.719 0.956682 190.312 0.857893 191.091 0.842117C191.679 0.830225 192.327 0.842934 193.009 0.879745C194.186 0.945034 195.267 0.945155 196.153 0.880096C197.185 1.23062 197.687 1.28761 198.645 1.1929L199.096 1.16584L199.219 1.24102L199.563 1.22449C200.208 1.20976 200.852 1.19504 201.524 1.18979C202.458 1.22232 203.467 1.30984 204.452 1.4438C204.639 1.46726 204.894 1.54697 205.058 1.60937C205.222 1.67178 205.58 1.86004 205.843 1.98259C205.557 2.07206 205.239 2.15761 205.011 2.26045C204.989 2.27803 204.991 2.29898 205.018 2.32163C205.045 2.34427 205.096 2.36799 205.168 2.39087C205.239 2.41374 205.328 2.43513 205.428 2.45333C205.528 2.47153 205.636 2.48602 205.744 2.49565C205.953 2.51639 206.16 2.53021 206.355 2.53656C207.318 2.5475 208.24 2.53937 209.112 2.51224C209.431 2.47398 209.867 2.47034 210.351 2.50192C210.835 2.5335 211.34 2.59848 211.786 2.68655C212.927 2.63368 214.253 2.6493 215.673 2.73233C217.174 2.68183 218.987 2.78396 220.39 2.67331C220.357 2.72894 220.502 2.82473 220.704 2.87992C221.023 2.96375 221.385 3.04144 221.774 3.10969L224.739 3.24297C224.85 3.3115 224.989 3.38087 225.153 3.45018C225.266 3.50493 225.462 3.55851 225.7 3.59955C225.939 3.64059 226.2 3.66588 226.429 3.67005C227.02 3.69035 227.514 3.64495 228.218 3.75713C227.135 3.86318 225.673 3.84909 224.094 3.71737C222.61 3.6172 221.183 3.56714 219.866 3.56904C219.432 3.56828 218.859 3.57413 218.724 3.63473C218.423 3.80599 217.636 3.77892 216.718 3.74733C215.997 3.71275 215.338 3.71663 214.796 3.75865C214.254 3.80068 213.844 3.87965 213.6 3.98906C213.538 4.09477 213.686 4.185 214.319 4.24651L216.951 4.49316C217.339 4.46145 217.707 4.42391 218.053 4.3807C218.637 4.32331 219.358 4.30756 220.161 4.33467C220.963 4.36178 221.824 4.43102 222.678 4.53701C223.114 4.59175 223.55 4.64649 223.867 4.62048C224.144 4.5906 224.4 4.55483 224.632 4.51343C224.678 4.48568 224.697 4.45374 224.687 4.41884C224.855 4.43507 225.023 4.45617 225.186 4.48141C226.485 4.77585 227.491 4.77075 228.406 4.69438C228.653 4.67168 228.841 4.63559 229.092 4.60733C229.343 4.57906 229.431 4.54237 229.659 4.55305C231.476 4.64962 231.999 4.32709 233.53 4.34004C233.604 4.32744 233.651 4.3086 233.664 4.28527C233.678 4.26194 233.659 4.23486 233.608 4.20652C233.5 4.18093 233.375 4.15893 233.244 4.14253C233.113 4.12613 232.981 4.11587 232.86 4.11268C232.155 4.07129 231.533 4.08398 231.1 4.14858C230.793 4.17498 230.468 4.19601 230.126 4.21157L228.593 3.7445C230.079 3.78732 231.483 3.78703 232.775 3.74366C233.057 3.71931 233.534 3.76127 233.93 3.76925L236.848 3.8129C237.448 3.81652 237.959 3.7433 238.796 3.91398C238.796 3.91398 239.349 3.9415 239.496 3.9182C239.643 3.89489 240.297 3.74995 240.686 3.65553C241.139 3.68245 241.765 3.75509 242.047 3.73074C242.54 3.67091 242.966 3.59422 243.318 3.50204L245.081 3.63364C245.079 3.75054 245.015 3.86051 244.889 3.96189C244.751 4.05966 244.756 4.17702 244.903 4.30437C245.049 4.43173 245.333 4.56546 245.731 4.69465L247.472 5.37885C247.756 5.42467 248.058 5.45551 248.339 5.46719C248.619 5.47887 248.864 5.47082 249.039 5.44413C249.788 5.3649 250.627 5.30296 251.375 5.22373C252.341 5.34494 252.093 5.54072 252.795 5.71245L255.07 5.99788C255.417 6.26238 255.77 6.51575 254.715 6.6043C254.505 6.61979 254.647 6.72114 254.455 6.76279C255.276 6.96129 256.178 7.02071 257.009 7.14297C257.337 7.23089 257.611 7.32397 257.818 7.41769C258.046 7.55882 258.507 7.70297 259.103 7.81904C259.698 7.9351 260.38 8.01375 261.001 8.03801C262.042 8.11231 263.109 8.22392 264.153 8.36782C264.509 8.41785 264.876 8.45431 265.227 8.47473C265.579 8.49515 265.907 8.49905 266.191 8.48619C267.2 8.46353 268.055 8.38561 268.699 8.25752C269.336 8.14881 270.194 8.09641 271.197 8.10508C272.91 8.32013 273.256 8.64418 274.293 8.9296L272.502 8.9616C272.437 9.07287 272.555 9.21317 271.821 9.2106C271.087 9.20803 271.459 9.3145 271.697 9.42201C271.781 9.4761 271.945 9.53173 272.161 9.5795C272.377 9.62726 272.631 9.66422 272.882 9.68412L274.407 9.82173C274.948 9.87411 275.471 9.89647 275.919 9.88637C276.368 9.87627 276.724 9.8341 276.949 9.76448C277.207 9.69838 277.563 9.65367 277.996 9.63308C278.547 9.57916 279 9.49896 279.339 9.39552L281.492 9.54622C281.583 9.44228 281.879 9.36939 282.329 9.33989C282.779 9.31039 283.355 9.32608 283.961 9.38431L285.412 9.47682C287.025 9.57774 287.379 9.54451 287.852 9.25145L285.917 8.72799C286.198 8.59011 286.47 8.46891 286.741 8.34772C286.259 8.17526 285.616 8.01215 284.877 7.87494C284.188 7.72751 283.479 7.58472 282.753 7.44711C281.966 7.30651 281.134 7.18424 280.156 7.02574C279.986 6.97446 279.738 6.88363 279.421 6.79611C279.104 6.71107 278.773 6.6277 278.43 6.54634C278.495 6.43507 278.554 6.33492 278.428 6.20576C279.031 6.24697 279.653 6.31906 280.238 6.41551C280.824 6.51196 281.356 6.62976 281.784 6.75826C281.857 6.78105 281.945 6.80246 282.044 6.82103C282.142 6.83961 282.249 6.85493 282.357 6.86594C283.415 6.9449 283.92 7.10985 284.437 7.3121C284.786 7.41549 285.234 7.50731 285.722 7.57481C286.657 7.69211 287.572 7.8428 288.466 7.97288C288.739 8.01623 289.024 8.05191 289.307 8.07845C290.241 8.16284 291.182 8.28084 292.08 8.42645C292.374 8.46346 292.655 8.51243 292.901 8.56928C293.147 8.62613 293.351 8.68919 293.495 8.75321C293.272 8.82336 293.152 8.9119 293.142 9.0135C293.103 9.08026 293.759 9.21636 294.069 9.31501C294.379 9.41365 293.771 9.36717 293.565 9.37709C292.717 9.39618 292.56 9.43617 293.067 9.65511C293.237 9.72396 293.349 9.79285 293.398 9.85749C293.446 9.92213 293.43 9.98115 293.349 10.0309C293.229 10.2367 292.863 10.4058 292.611 10.6071C293.002 10.7397 293.655 10.8814 293.726 11.0456C293.76 11.082 293.832 11.1206 293.937 11.1586C294.042 11.1965 294.178 11.2329 294.333 11.2651C294.743 11.3346 295.116 11.4177 295.423 11.508C295.73 11.5983 295.962 11.6933 296.102 11.7857C296.148 11.824 296.259 11.8645 296.412 11.8993C296.566 11.934 296.75 11.9604 296.929 11.9731C297.143 11.9887 297.335 11.9867 297.464 11.9674C297.594 11.948 297.652 11.913 297.625 11.8693C297.631 11.7874 297.602 11.702 297.541 11.6139C297.577 11.5527 297.612 11.4915 297.471 11.3901C298.11 11.4271 298.78 11.5012 299.41 11.6045C300.039 11.7077 300.604 11.836 301.042 11.9756C301.526 12.1199 301.973 12.2715 302.509 12.4404C302.399 12.6295 302.399 12.6295 303.541 12.964L309.6 13.1271L310.842 13.3486C312 13.5417 312.275 13.5284 313.002 13.4286L313.492 13.3348C314.52 13.4638 315.704 13.6124 316.348 13.3706C316.556 13.5282 316.693 13.5811 316.645 13.6051C316.338 13.8376 315.805 14.0349 315.066 14.1892C314.878 14.2253 314.745 14.2803 314.526 14.3125C313.818 14.4941 313.654 14.7747 314.067 15.097C314.272 15.2396 314.569 15.3856 314.95 15.5303C314.393 15.7312 313.654 15.8976 312.754 16.0252C311.991 16.1238 311.362 16.2559 310.886 16.4177C310.458 16.5809 309.818 16.7035 309.002 16.7786C308.588 16.8105 308.286 16.8735 308.126 16.9613C308.079 17.1989 308.188 17.4533 308.452 17.7188C308.502 17.7996 308.644 17.8869 308.865 17.9738C309.087 18.0607 309.384 18.1449 309.731 18.2197C309.731 18.2197 309.899 18.2766 309.979 18.3105C310.046 18.5983 309.795 18.8519 309.243 19.0543C309.153 19.1117 308.968 19.1532 308.708 19.1742C308.448 19.1953 308.123 19.1951 307.769 19.1738C307.019 19.1395 306.319 19.1353 305.595 19.116C304.814 19.0888 304.126 19.1102 303.604 19.1782C303.082 19.2461 302.744 19.3579 302.626 19.502C302.619 19.5427 302.596 19.5818 302.558 19.6188C302.536 19.6379 302.524 19.6584 302.522 19.68L304.186 20.1516L302.304 20.3393C302.193 20.5285 303.097 20.6419 303.55 20.7823L303.27 20.8607C302.909 20.905 302.424 20.8202 301.984 20.771L301.548 20.7163L301.496 20.8053C301.224 20.9265 300.234 20.7903 299.847 20.8791C299.461 20.968 299.737 21.0683 300.316 21.1648C300.718 21.2366 301.151 21.2938 301.58 21.3322C302.009 21.3706 302.425 21.3891 302.795 21.3864C303.016 21.3769 303.2 21.3552 303.334 21.3226C304.116 21.184 304.979 21.0648 305.917 20.966C306.637 20.8772 307.538 20.8395 308.558 20.8554C308.857 20.8487 309.218 20.8697 309.577 20.9147C309.936 20.9598 310.27 21.026 310.521 21.1017V21.1017L311.049 21.1142C311.049 21.1142 311.337 21.1922 311.296 21.205C311.095 21.4362 311.329 21.7189 311.962 22.0111V22.0111L311.412 22.0376C310.625 22.0105 311.124 22.1866 311.006 22.2734C310.447 22.257 309.721 22.1837 309.455 22.2938L309.059 22.2858L309.215 22.3054L309.403 22.2693L310.143 22.4338C309.792 22.4615 309.538 22.4953 309.229 22.5102C309.057 22.5231 308.921 22.546 308.828 22.5774C308.735 22.6088 308.687 22.6481 308.687 22.693C308.688 22.762 308.595 22.8201 308.419 22.8617C308.242 22.9033 307.987 22.9271 307.678 22.9307C307.309 22.9322 307.098 23.0072 306.882 23.0338L307.821 23.4862C307.821 23.4862 307.354 23.4275 307.608 23.5072L307.641 23.4516L308.21 23.5648C308.62 23.6641 308.907 23.6881 309.15 23.617C309.392 23.5459 309.337 23.6405 309.453 23.6133C309.411 23.6856 309.147 23.7361 308.921 23.7794C308.66 23.8134 308.365 23.8385 308.041 23.8541C308.624 24.1722 308.652 24.1816 307.8 24.2658C306.948 24.35 307.242 24.4765 306.529 24.4945C305.816 24.5126 306.627 24.7277 307.104 24.7697C307.458 24.7973 307.819 24.8403 308.161 24.8957C308.504 24.9511 308.821 25.0176 309.09 25.0906L308.947 25.3354C308.737 25.3152 308.527 25.2888 308.324 25.2572C307.633 25.1228 307.005 24.9962 306.391 25.0743L306.683 25.2603L304.539 25.1525C304.594 25.2919 304.921 25.4507 305.45 25.5953V25.5953C305.371 25.6748 305.322 25.7585 305.304 25.8457C305.268 25.9069 305.057 25.8684 304.919 25.875C304.428 25.8853 304.025 25.9267 303.745 25.9958C303.466 26.0648 303.318 26.1594 303.316 26.2711C303.261 26.3656 304.015 26.5619 304.488 26.5554C305.666 26.5743 306.941 26.6471 308.242 26.7698C309.035 26.7857 309.147 26.537 310.453 26.7068C310.479 26.8216 310.312 26.9146 309.977 26.9717C309.641 27.0288 309.157 27.0468 308.596 27.0231C308.915 27.2782 310.682 27.3447 310.76 27.6113C310.32 27.5924 309.849 27.5481 309.395 27.4827C308.94 27.4173 308.518 27.3331 308.169 27.2383C308.093 27.215 307.999 27.1934 307.894 27.1757C307.789 27.158 307.676 27.1447 307.567 27.137C307.459 27.1293 307.356 27.1274 307.271 27.1316C307.185 27.1358 307.118 27.1459 307.077 27.161C307.321 27.2574 307.591 27.3688 307.898 27.473C308.204 27.5772 308.278 27.6223 308.5 27.6442C310.151 27.8514 310.936 28.2246 312.365 28.4696C312.739 28.5165 312.786 28.6657 312.461 28.6488C312.152 28.632 311.873 28.6342 311.654 28.6552C311.434 28.6762 311.285 28.7152 311.221 28.7679C310.981 28.8293 310.683 28.8782 310.333 28.9133C311.798 29.2963 313.545 29.6347 315.41 29.8968C315.763 29.9486 316.132 29.9801 316.461 29.9869C317.502 29.9872 318.607 30.0176 319.753 30.0774C320.159 30.0937 320.535 30.0922 320.859 30.0729C321.923 30.0272 322.768 30.1273 323.539 30.4092L324.816 30.8561C324.774 30.9284 324.56 31.009 324.395 31.1197L325.392 31.3584L333.005 30.8087L334.533 31.3409L336.725 31.3113C336.893 31.3267 337.062 31.3479 337.223 31.3739C337.667 31.531 338.013 31.682 338.494 31.8319C338.975 31.9818 339.834 32 340.433 32.1767C341.032 32.3534 341.632 32.357 342.373 32.462C342.443 32.5988 342.371 32.7219 342.162 32.8236C342.093 32.9405 341.717 33.0127 341.652 33.1239C341.659 33.2364 341.519 33.3319 341.244 33.4017C340.97 33.4715 340.57 33.5135 340.08 33.5239C338.708 33.7633 337.054 33.9338 335.168 34.0302C335.002 34.0372 334.865 34.0534 334.764 34.0778C334.664 34.1021 334.602 34.1342 334.583 34.1719C334.586 34.281 334.46 34.3753 334.215 34.4479C333.97 34.5205 333.612 34.5695 333.167 34.5914C333.049 34.5958 332.959 34.6095 332.91 34.6308C332.741 34.6445 332.618 34.6708 332.553 34.7071C332.488 34.7435 332.483 34.7886 332.538 34.8381C332.593 34.8877 332.707 34.94 332.868 34.99C333.029 35.04 333.232 35.086 333.458 35.1235C333.786 35.1841 334.12 35.242 334.46 35.2971C334.441 35.3305 334.103 35.3359 334.152 35.3659C334.286 35.4619 334.317 35.5519 334.243 35.6286C334.169 35.7054 333.992 35.7668 333.726 35.8082L335.546 36.5859C336.65 36.6936 337.734 36.8763 338.59 37.0993C338.591 37.1358 338.542 37.1664 338.447 37.1881C338.353 37.2097 338.215 37.2216 338.05 37.2226C337.606 37.2385 337.186 37.2695 336.708 37.2871C336.415 37.3002 336.172 37.3291 335.992 37.3721C335.811 37.4151 335.698 37.4714 335.658 37.5376L336.726 37.8269C336.384 37.8974 336.13 37.9312 335.904 37.9745C336.032 38.0655 336.253 38.1595 336.548 38.2494C336.843 38.3393 337.206 38.4226 337.608 38.4929C337.716 38.5074 337.826 38.518 337.931 38.524C338.037 38.5301 338.136 38.5315 338.223 38.5282C339.05 38.429 340.018 38.6042 340.958 38.7699C341.898 38.9356 342.408 39.0355 343.102 39.1644L344.43 39.1817C344.766 39.2427 345.066 39.3144 345.305 39.3912C345.545 39.4679 345.718 39.5475 345.81 39.6236C345.738 39.746 345.109 39.679 344.733 39.6916C343.843 39.7678 342.672 39.7515 341.416 39.6455C341.104 39.6064 340.785 39.638 340.481 39.6417C339.827 39.657 339.199 39.6818 338.598 39.716C338.203 39.7479 337.834 39.7873 337.492 39.834C337.401 39.9898 338.836 40.1101 338.022 40.1871C338.302 40.2223 338.407 40.2713 338.551 40.2536C339.475 40.3547 340.385 40.4047 341.176 40.3978C342.694 40.3763 344.418 40.4473 346.206 40.6049C348.136 40.7683 349.988 40.8368 351.608 40.805C352.225 40.8032 352.915 40.8366 353.624 40.9028C354.463 40.9945 355.295 41.0521 356.067 41.072C356.323 41.0727 356.608 41.0883 356.899 41.1175C357.19 41.1468 357.479 41.1888 357.742 41.2403V41.2403C357.719 41.2792 357.468 41.3075 357.524 41.3264C358.324 41.6179 358.648 41.9213 359.878 42.2191C360.72 42.3246 361.686 42.4458 362.236 42.3059C362.786 42.1659 362.589 42.0456 361.494 41.6872C361.731 41.6821 362.018 41.6988 362.302 41.7345C362.587 41.7703 362.852 41.8227 363.052 41.8827L363.999 42.1509L364.852 42.4072C364.777 42.5352 364.719 42.6353 364.657 42.741C364.559 42.8533 364.666 42.99 364.963 43.1319C365.143 43.2093 365.299 43.2868 365.43 43.3636C365.964 43.6707 366.118 43.961 365.876 44.2019C365.413 44.5483 364.767 44.867 363.948 45.1543C363.082 45.4338 362.608 45.7864 361.895 46.0911C361.531 46.2298 361.089 46.3541 360.573 46.4627C359.596 46.7044 358.525 46.9343 357.544 47.1815C356.563 47.4286 355.456 47.6062 354.367 47.8099C352.745 48.0517 350.992 48.2605 349.118 48.4352C347.958 48.5883 346.767 48.7374 345.694 48.9134C344.427 49.1116 342.938 49.2541 341.265 49.337C339.788 49.4363 338.467 49.5832 337.33 49.7748C337.211 49.7955 337.117 49.8219 337.05 49.8532C336.845 50.0486 336.271 50.1863 335.416 50.2453C335.468 50.3025 335.534 50.3607 335.615 50.4196C335.734 50.4898 335.758 50.5554 335.686 50.6081C335.613 50.6607 335.447 50.698 335.208 50.7149C334.524 50.7633 333.955 50.8455 333.527 50.9579C333.37 50.986 333.273 51.0271 333.243 51.0775C333.214 51.1279 333.253 51.1861 333.358 51.2472C333.451 51.31 333.458 51.3678 333.378 51.4131C333.298 51.4585 333.134 51.4892 332.908 51.5013C332.329 51.5608 331.709 51.6086 331.052 51.6446C329.654 51.7238 328.027 51.7228 326.271 51.6418C326.084 51.6183 325.895 51.6544 325.677 51.627C324.435 51.5362 323.282 51.5221 322.356 51.5865C321.271 51.6116 320.137 51.6066 318.993 51.6184C317.34 51.6105 315.815 51.6583 314.461 51.7604C312.913 51.6617 312.044 51.8333 310.737 51.8366C309.531 51.8542 308.388 51.8964 307.319 51.963C305.595 52.0512 303.877 52.1283 302.178 52.2316C300.584 52.2808 299.116 52.3749 297.799 52.5123C297.295 52.5743 296.381 52.4777 296.038 52.6077C295.694 52.7378 295.001 52.7224 294.44 52.7656L292.672 52.8722C292.368 52.8975 292.034 52.9136 291.674 52.9201C290.03 52.9288 288.892 53.1025 287.366 53.1379L287.21 53.1184C284.501 53.3765 281.4 53.5182 278 53.5393C276.014 53.6185 273.842 53.6147 271.734 53.6727C271.231 53.7888 270.044 53.6457 269.413 53.7517C268.783 53.8577 267.753 53.7883 266.94 53.8057C266.127 53.8231 265.333 53.8667 264.464 53.8652C263.709 53.8657 263.072 53.913 262.611 54.0029C261.557 54.1515 260.272 54.2388 258.814 54.261C256.885 54.2996 255.061 54.3873 253.099 54.368C253.127 54.4763 253.006 54.5684 252.75 54.6349C252.493 54.7014 252.11 54.7398 251.64 54.7463C249.542 54.7876 247.639 54.8952 245.513 54.9271L244.945 54.9274L238.587 54.9895C236.874 55.0015 235.223 55.0214 233.476 55.035C232.822 54.9529 232.806 55.0943 232.353 55.0673C232.227 54.9977 232.078 54.967 231.855 55.0048L231.806 55.0882L224.55 55.1989C221.709 55.2799 218.721 55.3042 215.611 55.2716C214.873 55.2798 214.184 55.3074 213.556 55.3541C212.973 55.3711 212.365 55.3787 211.736 55.3766C210.886 55.3556 210.055 55.345 209.246 55.3449C207.12 55.3767 204.89 55.3595 202.562 55.3362C200.234 55.3128 198.471 55.3543 196.399 55.3511C194.996 55.3482 193.599 55.3342 192.147 55.3013C191.453 55.2859 190.599 55.2026 189.881 55.1722C189.163 55.1418 188.928 55.1423 188.834 55.1901C188.521 55.3241 187.736 55.2374 187.108 55.2244C185.883 55.2021 185.709 55.1564 185.377 54.8101L186.879 54.7C187.247 54.6645 187.711 54.6583 188.224 54.6819C188.737 54.7055 189.284 54.7582 189.811 54.835C190.018 54.8678 190.235 54.8938 190.448 54.9114C190.662 54.929 190.868 54.9378 191.055 54.9374C192.571 54.9186 194.066 54.8792 195.523 54.8471L195.736 54.826L195.749 54.5172C195.557 54.4868 195.357 54.4618 195.157 54.4429L187.849 54.2425C186.172 54.1933 184.431 54.0823 182.785 54.037C181.139 53.9917 180.252 53.964 178.975 53.9172C178.436 53.8906 177.887 53.8556 177.331 53.8124C177.363 53.7827 177.382 53.751 177.386 53.7178C177.415 53.6678 177.454 53.601 177.218 53.5475C176.96 53.4719 176.616 53.4073 176.254 53.3667C175.913 53.3399 175.583 53.3247 175.277 53.3217C173.794 53.2958 172.101 53.1327 170.559 52.8671L170.02 53.0444C167.704 52.9448 165.353 52.8468 162.933 52.7522C162.449 52.7264 161.94 52.6769 161.446 52.6074C160.916 52.5409 160.429 52.4021 159.871 52.3262C159.32 52.2715 158.773 52.2289 158.24 52.1991C158.384 52.1535 158.574 52.117 158.805 52.0909C159.031 52.0817 159.196 52.0532 159.276 52.0095C159.356 51.9658 159.346 51.9092 159.248 51.8479C159.075 51.7426 158.999 51.6435 159.375 51.6309C159.722 51.6069 159.97 51.5549 160.09 51.4811C160.21 51.4073 160.197 51.3148 160.053 51.2144C159.99 51.1557 159.945 51.0982 159.92 51.0424V51.0424L159.764 51.0228C159.25 50.815 158.224 50.7399 157.487 50.5699C157.139 50.5206 156.779 50.4922 156.464 50.4892C155.649 50.4527 154.855 50.4367 154.013 50.3907C153.61 50.3696 153.189 50.3309 152.775 50.2772C152.183 50.2029 152.12 50.1951 151.777 49.925C152.31 49.9297 152.734 49.8894 152.975 49.8108C153.216 49.7322 153.26 49.6202 153.099 49.4938C152.659 49.2175 152.194 48.9263 150.201 48.73C150.851 48.7203 151.476 48.7011 152.074 48.6724C152.249 48.6663 152.379 48.646 152.448 48.6143C152.517 48.5826 152.522 48.541 152.461 48.4951C152.401 48.4492 152.278 48.4012 152.11 48.3574C151.941 48.3137 151.735 48.2763 151.519 48.2503C150.467 48.0941 149.37 47.9895 148.351 47.9484C147.492 47.9302 146.716 47.9404 145.713 47.9399L144.529 47.7913C144.549 47.7579 144.375 47.7122 144.419 47.6939C144.72 47.5226 145.052 47.3553 145.394 47.1712C144.848 47.0718 144.375 46.9519 144.029 46.825C143.683 46.6982 143.478 46.5696 143.438 46.4541C143.409 46.4192 143.417 46.3874 143.461 46.361C143.505 46.3346 143.585 46.3142 143.695 46.3012C144.007 46.2788 144.247 46.2361 144.398 46.1764C144.549 46.1166 144.606 46.0414 144.566 45.9565L143.645 45.6439C140.872 45.4208 138.15 45.2615 135.527 45.1688L133.16 45.0987C132.875 45.015 132.963 44.9784 133.232 44.9763C133.5 44.9742 134.256 44.9973 134.784 45.0098C135.24 45.0262 135.645 45.0154 135.959 44.9785C136.274 44.9416 136.488 44.8798 136.58 44.7992L135.785 44.4426C135.824 44.3759 135.879 44.2813 136.31 44.2876C136.605 44.2799 136.822 44.2463 136.926 44.1922C137.031 44.1381 137.017 44.0668 136.886 43.9896C136.866 43.9338 136.896 43.8829 136.974 43.8394C137.612 43.8358 138.246 43.8377 138.824 43.8208C139.094 43.8151 139.321 43.7945 139.491 43.7602C139.662 43.7259 139.77 43.6787 139.81 43.622C139.831 43.5666 139.78 43.5035 139.662 43.4378C139.543 43.3721 139.361 43.3057 139.128 43.2438C138.222 43.1673 137.392 43.1663 136.822 43.2411C136.619 43.2997 136.292 43.3317 135.886 43.3329C135.479 43.3341 135.011 43.3044 134.544 43.2478C134.009 43.1825 133.475 43.1538 133.038 43.1669C132.601 43.1799 132.29 43.2339 132.161 43.319C131.612 43.286 131.125 43.2607 130.644 43.2243C130.078 43.1784 129.542 43.1648 129.095 43.1852C128.38 43.1995 127.61 43.1911 126.802 43.1602C124.472 43.0828 122.14 43.0111 119.884 42.9789C119.287 42.9697 118.771 42.9945 118.181 42.9742C117.591 42.9539 117.124 43.0087 116.386 42.8982C116.245 42.881 116.104 42.87 115.972 42.866C115.841 42.862 115.724 42.8651 115.63 42.875C114.334 42.9624 112.814 42.9748 111.16 42.9114C108.895 42.8958 106.546 42.8519 104.277 42.8419C103.612 42.8505 102.983 42.8735 102.397 42.9106C101.952 42.9331 101.485 42.9483 100.999 42.9562C100.627 42.9632 100.272 42.9425 100.334 43.0638C100.397 43.1852 99.8396 43.1092 99.5182 43.0868C98.4141 43.028 97.2857 42.9483 96.1456 42.8487C95.0221 42.7405 93.9213 42.6775 92.9091 42.6636C92.1781 42.6554 91.4242 42.6863 90.4843 42.5205C90.5201 42.4593 90.5558 42.3981 90.7604 42.3342C89.9939 42.1584 89.1193 42.0071 88.209 41.8929C87.2987 41.7787 86.3789 41.7048 85.5256 41.6773L84.3489 41.3446C84.0592 41.3055 83.7634 41.277 83.4795 41.2609C83.1957 41.2448 82.9298 41.2414 82.6978 41.2508C82.5186 41.2557 82.3002 41.2433 82.0827 41.216C81.8652 41.1887 81.6632 41.1483 81.5137 41.1023C81.2903 41.0437 81.0174 40.9931 80.7292 40.957C80.4409 40.9208 80.1502 40.9006 79.8934 40.8989C79.0849 40.8627 78.2219 40.7792 77.3927 40.6568C77.1775 40.5851 77.0427 40.5109 77.0048 40.4436C76.967 40.3762 77.0278 40.3186 77.1797 40.2777C77.4247 40.2056 77.5622 40.1137 77.584 40.0077C77.6058 39.9016 77.5114 39.7835 77.3066 39.6606C77.2016 39.5852 77.1666 39.5137 77.2035 39.4506C77.2404 39.3875 77.3485 39.334 77.5213 39.2934C78.1664 39.1056 77.9938 39.0004 76.9385 38.6888C76.7671 38.6369 76.5604 38.5883 76.3317 38.5462C76.103 38.5042 75.8571 38.4695 75.6098 38.4444C75.0294 38.3937 74.457 38.3559 73.903 38.3318C73.5914 38.2927 73.2718 38.3242 72.9128 38.3091C71.1176 38.2331 70.8548 38.1105 70.2735 37.8465L69.8497 37.656C69.0639 37.5016 68.2045 37.3735 67.3334 37.2807C66.4623 37.1879 65.6012 37.1328 64.8121 37.1194C64.4985 37.1184 64.1379 37.092 63.7857 37.0443C62.6394 36.8985 61.4785 36.7976 60.3799 36.7483C59.6953 36.7206 58.9574 36.6488 58.2548 36.5415C57.5521 36.4343 56.9146 36.2962 56.4188 36.1438C55.9735 36.0065 55.3908 35.8833 54.752 35.7913C54.0041 35.6975 53.9349 35.5873 54.3525 35.5023C54.7701 35.4174 55.4695 35.308 56.0904 35.2187C56.3064 35.1884 56.4403 35.139 56.477 35.0762C56.5138 35.0133 56.4521 34.9394 56.2987 34.8627C56.2002 34.7314 56.1831 34.6068 56.2479 34.492C56.2825 34.4443 56.2586 34.3896 56.1778 34.3315C56.097 34.2735 55.9612 34.2135 55.7795 34.1557C55.5978 34.0978 55.3745 34.0433 55.1246 33.996C54.8747 33.9486 54.604 33.9095 54.3308 33.8812C53.1778 33.7365 52.0561 33.5957 50.8803 33.49C50.3876 33.4402 49.8954 33.3784 49.4158 33.3062C48.434 33.1277 47.3837 32.9797 46.3258 32.8707C45.8238 32.822 45.3329 32.7368 44.9595 32.6336C43.7817 32.3555 42.6964 32.0631 41.7233 31.7617C41.4888 31.6682 41.1819 31.577 40.8219 31.4938C40.4619 31.4106 40.0566 31.3372 39.6314 31.2782C39.2886 31.2352 39.0096 31.1405 38.7454 31.0775C38.5535 30.9316 38.5329 30.7966 38.6858 30.6852C38.8388 30.5738 39.1601 30.4897 39.6196 30.4407C40.0554 30.3819 40.4632 30.3136 40.8399 30.2415C41.294 30.1831 41.8338 30.1481 42.4393 30.1376C43.1564 30.1063 43.6867 30.0167 43.961 29.8806C41.9979 29.6343 40.131 29.2806 38.4103 29.3633L37.1029 29.1395C37.155 29.0505 37.2005 28.9726 37.2428 28.9003C37.5538 28.7686 37.6509 28.6026 37.526 28.4163C37.4229 28.3261 37.4323 28.2441 37.5529 28.1785C37.6735 28.1129 37.9012 28.066 38.2128 28.0426C40.0591 27.8025 42.1942 27.6404 43.9256 27.368C44.4685 27.3169 45.1039 27.2936 45.8053 27.2993C46.4839 27.2829 46.4555 27.1599 45.6746 27.0082C45.2363 26.9289 44.7896 26.8529 44.3361 26.7805C42.3363 26.7684 41.5216 27.132 39.2395 27.0308L38.1818 26.5517C37.8958 26.5443 37.6182 26.5414 37.3507 26.543L33.5243 26.7376C33.2055 26.7474 32.9574 26.7807 32.8081 26.8337C32.6589 26.8868 32.6144 26.9575 32.6797 27.0378C32.7056 27.136 32.6529 27.2261 32.5235 27.3048C32.4401 27.3599 32.4935 27.4332 32.672 27.5086C33.0743 27.6785 32.5581 27.7033 32.2321 27.746C32.1487 27.7502 32.0526 27.7497 31.9494 27.7447C31.8461 27.7396 31.7377 27.7301 31.6304 27.7167C31.5232 27.7032 31.4192 27.6861 31.3246 27.6663C31.23 27.6465 31.1465 27.6244 31.0791 27.6013C30.5048 27.4397 30.0024 27.2691 29.4378 27.0908C29.8386 26.9201 29.367 26.64 29.9925 26.4856C30.0624 26.4547 30.0904 26.4171 30.0748 26.3751C30.0591 26.3331 30 26.2875 29.9013 26.2412C29.6466 26.1217 29.5253 26.0051 29.5496 25.9033C29.5739 25.8015 29.743 25.7181 30.0398 25.6614L30.0756 25.6002C29.2928 25.3945 29.5002 25.2115 29.1928 24.9938L28.4398 24.8515C26.5665 24.5089 26.5632 24.5145 24.9503 24.5271C24.6252 24.3967 25.0383 24.3769 25.348 24.362L27.9421 24.2157C29.6382 24.118 31.3836 24.0504 33.2783 24.0134C35.1729 23.9765 37.2852 23.8533 39.2436 23.7647C39.3426 23.7578 39.4183 23.7442 39.4645 23.7251C39.5106 23.7059 39.5257 23.6817 39.5086 23.6546C39.4308 23.6252 39.3289 23.5969 39.2105 23.5717C39.0921 23.5465 38.9602 23.5251 38.8245 23.509C38.2013 23.4308 37.5618 23.3804 36.8977 23.315L35.6596 23.2015L35.2788 23.0522C35.0309 22.9613 34.8615 22.8505 34.5318 22.7852C34.26 22.7366 33.9651 22.6996 33.6775 22.6782C33.39 22.6569 33.1205 22.6518 32.8971 22.6637C32.2776 22.6935 31.7172 22.7366 31.1257 22.7759C30.5341 22.8151 30.2081 22.8578 29.6951 22.877C28.6529 22.8858 27.6457 22.9089 26.6778 22.9463C25.8626 23.0348 25.1086 23.1397 24.4205 23.2602C23.9912 23.3079 23.5898 23.365 22.8569 23.3029C22.5091 23.2466 22.2092 23.1726 22.0102 23.0941C21.8113 23.0155 21.7261 22.9375 21.7699 22.8739C21.8093 22.824 21.9206 22.7846 22.0934 22.7592C22.2663 22.7339 22.4949 22.7235 22.7577 22.7291C23.4934 22.7199 24.1737 22.6891 24.785 22.6371C25.6357 22.543 26.6714 22.5024 27.8315 22.5178C28.225 22.5313 28.4887 22.4808 28.8329 22.4643C29.177 22.4477 29.4685 22.4067 29.8522 22.4369C31.0442 22.5148 31.6158 22.3954 32.3301 22.3179C32.5719 22.2835 32.7217 22.2279 32.763 22.1572C32.8044 22.0865 32.7357 22.0035 32.5644 21.9173C32.2347 21.7456 31.8314 21.5729 31.3608 21.402C31.1186 21.3179 30.8082 21.2381 30.4542 21.1689C30.1001 21.0996 29.7118 21.0426 29.3199 21.0025C29.0854 20.8974 28.9603 20.794 28.9559 20.7017C28.9515 20.6093 29.068 20.5311 29.2948 20.4739C29.8728 20.3433 30.3853 20.2106 31.6805 20.2835C32.2895 20.3114 32.8626 20.3167 33.377 20.2993C34.5181 20.2755 35.8344 20.3277 37.2018 20.4508C37.5556 20.4824 37.9033 20.5039 38.2347 20.5147C40.5987 20.5904 42.851 20.6282 45.1098 20.6548C46.3064 20.6676 47.5128 20.6638 48.762 20.7011C51.6914 20.782 54.3581 20.7404 57.1857 20.7668C58.6666 20.7803 59.9921 20.7258 61.0928 20.6061C61.3071 20.5659 61.4912 20.5191 61.6429 20.4661C60.9135 20.327 60.1124 20.2169 59.3162 20.1462C58.52 20.0756 57.7555 20.0469 57.0959 20.0627C56.7332 20.1017 56.2645 20.1088 55.742 20.0833C55.2195 20.0578 54.6637 20.0007 54.1366 19.9183V19.9183L55.669 19.8718C56.6852 19.85 57.726 19.8432 58.7143 19.812C60.2843 19.7581 61.7394 19.672 63.3653 19.6371C64.678 19.6051 65.8526 19.5231 66.8523 19.3939C67.5746 19.2996 68.3995 19.2328 69.3102 19.1947C69.9576 19.1744 69.9576 19.1744 70.3714 18.9815C70.0431 18.8567 69.6185 18.8392 69.2185 18.8368C66.8207 18.7583 64.5388 18.7445 62.4192 18.7958C61.3498 18.8004 60.4011 18.8533 59.6186 18.952C59.427 18.9937 58.9368 18.9739 58.5434 18.9604C57.31 18.9398 56.1311 18.9458 55.021 18.9783C53.4862 19.0324 51.7767 19.0195 49.9592 18.9403C49.6145 18.8433 50.0112 18.8513 50.0308 18.8179C51.4385 18.7556 52.8184 18.6839 54.254 18.6312C54.6465 18.6124 55.066 18.6031 55.5078 18.6034C57.1574 18.6361 58.5319 18.5455 59.439 18.3442C59.4846 18.2663 60.0812 18.2755 60.3449 18.225C60.4747 18.1813 60.561 18.1298 60.6016 18.0721C60.2174 17.9283 59.783 17.9275 59.4487 17.9274C58.4784 17.9434 57.5449 17.9739 56.6528 18.0185C55.8235 18.061 54.9055 18.0723 53.9237 18.0523C53.1991 18.033 52.5797 18.0628 51.8486 18.0546C51.452 18.0375 51.0415 18.0101 50.6254 17.9728C51.0887 17.8726 51.7184 17.811 52.4704 17.7923C53.0405 17.7324 53.7535 17.7144 53.8446 17.5586C53.5753 17.4472 53.2753 17.4454 53.0344 17.4569C52.533 17.4565 52.0486 17.4635 51.5839 17.478C50.5985 17.5096 49.5316 17.5101 48.4056 17.4793C47.8127 17.4678 47.25 17.4712 46.7272 17.4896C45.5422 17.5141 44.4065 17.5687 43.3215 17.5938C41.099 17.6195 39.0718 17.7115 36.9363 17.76C36.461 17.772 36.0349 17.8141 35.4084 17.7415C34.782 17.6688 34.7541 17.6594 34.6802 17.6142C34.5048 17.539 34.4517 17.466 34.5318 17.4105C34.656 17.3586 34.8981 17.3297 35.2149 17.329C37.1239 17.2465 38.9347 17.1306 40.6357 16.982C41.3843 16.9523 42.0402 16.8916 42.5805 16.8021C43.0091 16.7404 43.5174 16.6996 44.0896 16.6809C44.9219 16.6363 45.7895 16.6037 46.6889 16.5831C47.1074 16.572 47.4632 16.539 47.7355 16.4859C48.0078 16.4329 48.191 16.361 48.2742 16.2744L47.1716 15.9867C46.9983 15.9733 46.8265 15.9617 46.6567 15.952L37.5047 16.1592L36.5983 16.1649C35.6049 16.1477 35.3621 16.1053 34.4199 15.7721C36.5703 15.6937 38.2608 15.4652 39.323 15.1093C39.0677 15.0711 38.806 15.0382 38.5439 15.0116C36.8254 14.9274 35.2008 14.9051 33.7328 14.9454C32.8608 14.9494 31.9642 14.9384 31.0643 14.933C31.3275 14.7689 32.3357 14.8178 32.9928 14.7808C34.563 14.723 35.9514 14.6034 37.1138 14.426C37.5145 14.3569 38.0159 14.3127 38.5949 14.2954C39.1744 14.2894 39.6584 14.2476 40.0049 14.1734C40.3515 14.0993 40.5499 13.9951 40.583 13.87C40.6375 13.7567 40.7552 13.6515 40.9341 13.5558C40.6176 13.42 40.115 13.29 39.5206 13.1901C38.9263 13.0902 38.2811 13.0274 37.706 13.0133C36.4784 12.9574 35.205 12.8659 33.9185 12.7411C33.2776 12.6782 32.6491 12.642 32.074 12.6351C31.5668 12.6297 30.9902 12.5843 30.4323 12.5056C29.8744 12.427 29.3658 12.3195 28.984 12.1996C28.4687 12.0513 27.9877 11.9014 27.5068 11.7514C27.0259 11.6015 26.4678 11.4121 25.9065 11.2281C25.4115 11.1994 24.9295 11.1809 24.4671 11.1729C24.1073 11.1797 23.6874 11.1596 23.2571 11.1152C22.8268 11.0707 22.4039 11.0036 22.0384 10.9219V10.9219C22.2528 10.8413 22.4951 10.7702 22.7504 10.6768C22.4 10.5535 22.1459 10.4278 22.0036 10.3073C21.8614 10.1868 21.8339 10.074 21.9229 9.97582C21.975 9.8868 21.5941 9.73747 21.4624 9.61943C21.293 9.51767 21.2612 9.42271 21.3711 9.34699C21.4811 9.27127 21.7277 9.21833 22.0786 9.19511C22.5139 9.15226 22.8681 9.08773 23.1268 9.00416C23.2124 8.98247 23.256 8.95276 23.2535 8.91775C23.2511 8.88274 23.2027 8.84355 23.1129 8.80377C23.023 8.76398 22.8946 8.72486 22.7392 8.68999C22.5839 8.65512 22.4066 8.62561 22.2236 8.60417C21.6631 8.54337 21.1065 8.50396 20.5856 8.48821C19.6883 8.45922 18.8294 8.44102 18.0087 8.43359C17.101 8.4224 16.0913 8.35339 15.082 8.23355C14.1783 8.12016 13.3681 8.01849 12.9263 7.80181C12.4844 7.58512 11.778 7.59203 11.2348 7.43428C11.5399 7.29208 12.0823 7.19329 12.8071 7.14786C13.2815 7.13164 13.6774 7.08908 13.9696 7.02289C14.2617 6.95671 14.4436 6.86837 14.5036 6.76354L12.8544 6.32369C11.5373 6.11661 10.8086 6.27599 9.38546 6.19297L10.8518 6.0306C10.8813 6.01455 10.8923 5.9957 10.8843 5.97496C10.742 5.64656 10.5155 5.57633 9.01652 5.39421L8.17523 5.28864L6.84368 5.16336C6.63043 5.09605 6.48296 5.02587 6.41594 4.95982C6.34892 4.89377 6.36473 4.83417 6.46182 4.78699C6.6569 4.70763 6.71621 4.60623 6.6343 4.49212C6.50515 4.41652 6.49451 4.34684 6.60417 4.29515C6.71383 4.24345 6.9369 4.21302 7.23467 4.20914C7.47231 4.20312 7.48996 4.11576 7.61924 4.06629C7.7477 3.99811 7.96756 3.94579 8.26384 3.91289C8.56012 3.88 8.92581 3.86728 9.33617 3.87564C10.546 3.88247 11.6825 3.85688 12.7256 3.79931L12.5386 3.77585C13.6258 3.82639 14.6422 3.83251 15.5383 3.79394C16.4363 3.74539 17.5888 3.77653 18.5426 3.74693C19.3191 3.75372 19.9103 3.68652 20.1908 3.55959C20.4623 3.4384 21.4492 3.46668 22.2049 3.48985C22.6526 3.50484 23.0853 3.51119 23.4983 3.50883C24.0527 3.4814 24.7459 3.50725 25.4623 3.58209C25.6773 3.60509 25.889 3.61726 26.0772 3.61743C27.8984 3.64889 29.7163 3.6859 31.5128 3.70232C31.9275 3.69287 32.4138 3.71452 32.9145 3.76474C33.125 3.78654 33.3299 3.79558 33.5015 3.79062C36.3403 3.74074 39.5436 3.868 42.3266 3.79918C42.6638 3.78292 43.0373 3.77955 43.4363 3.78913C44.3328 3.82956 45.1113 3.80354 45.6537 3.71503C45.9463 3.66795 46.3214 3.64201 46.7552 3.63885C47.1889 3.6357 47.6718 3.65541 48.1729 3.69672C49.0069 3.75142 49.7776 3.75735 50.4038 3.71389C51.6248 3.67374 52.9088 3.65723 54.2457 3.66449C54.6554 3.67152 55.0155 3.65591 55.2981 3.61889C55.5808 3.58186 55.7784 3.52441 55.8757 3.45098C55.5473 3.32617 55.1883 3.31099 54.8475 3.32196C53.5262 3.29352 52.2082 3.25951 50.9116 3.24611C49.751 3.20783 48.6375 3.19612 47.5873 3.21117C47.0658 3.22815 46.4151 3.18944 45.7772 3.10348C44.9954 2.99462 44.1902 2.94054 43.5244 2.95217C43.0308 2.95506 42.5097 2.94568 41.9687 2.92418C41.6225 2.89824 41.2676 2.85371 40.9405 2.79515C40.8107 2.76972 40.6694 2.74833 40.5256 2.73236C40.3819 2.71639 40.239 2.7062 40.1059 2.70242C39.9727 2.69864 39.8523 2.70136 39.7524 2.71041C39.6525 2.71946 39.5754 2.73464 39.5258 2.75498C39.0249 2.92504 37.905 2.83826 36.946 2.81945C35.5089 2.53162 34.4394 2.70198 33.0962 2.53941C32.99 2.52863 32.8853 2.5221 32.7887 2.52024C32.692 2.51838 32.6054 2.52122 32.5339 2.52857C29.9347 2.62642 26.9053 2.54487 24.1763 2.57866C23.8753 2.5836 23.5259 2.56667 23.168 2.52978C20.8285 2.28564 18.5792 2.21632 16.8598 2.3354C16.6505 2.34612 16.4126 2.34658 16.1566 2.33675C14.981 2.23972 13.8568 2.20103 12.8779 2.22392C11.3436 2.21653 9.86844 2.22252 8.30954 2.20009C7.23493 2.16818 6.29222 2.20227 5.57584 2.29898C5.55306 2.33793 5.07586 2.29596 4.71032 2.2919C4.50009 2.19385 4.31783 2.1053 4.10109 2.01838C3.90735 1.91085 3.61711 1.80203 3.25016 1.69932C2.8832 1.5966 2.44814 1.50239 1.97427 1.42304C1.16411 1.32138 1.08308 1.17386 1.64999 1.11958C3.11119 0.94002 4.94857 0.866526 7.02706 0.904496C8.76455 0.907531 10.5333 0.914483 12.2954 0.932555C13.3232 0.948059 14.4067 0.982496 15.4066 0.988527C15.744 1.00178 16.0906 1.0213 16.4428 1.04689C16.875 1.084 17.2945 1.10421 17.679 1.10646C18.9134 1.07521 20.2909 1.10243 21.746 1.18682C22.279 1.20522 22.7908 1.21142 23.2737 1.20534C24.4163 1.18243 25.655 1.19928 26.957 1.25546C27.7663 1.28714 28.5509 1.3037 29.3029 1.30498C29.5685 1.30844 29.7847 1.28183 30.0405 1.30198C32.2919 1.51283 33.8861 1.36053 35.9124 1.44161C36.8973 1.46422 37.8382 1.46429 38.7219 1.44181C40.4466 1.44289 42.2193 1.46601 44.033 1.51106C46.4313 1.58508 48.6538 1.5594 50.9438 1.58996C51.3959 1.59638 51.8325 1.59529 52.2503 1.58668C54.2825 1.5298 56.4898 1.54186 58.8184 1.62257C59.3471 1.63423 59.822 1.61997 60.2133 1.5807C60.6046 1.54143 60.9039 1.47798 61.0925 1.39434C61.1722 1.33693 61.1206 1.26237 60.9474 1.18503C60.66 1.08626 60.3354 0.989492 59.9791 0.896311L47.0171 0.583635C46.4727 0.567307 45.9418 0.558517 45.4271 0.557302C43.9132 0.554584 42.3528 0.530259 40.7536 0.48445C39.1733 0.44142 37.6637 0.449059 36.1327 0.436103C35.6817 0.431763 35.2188 0.421524 34.7459 0.405414C31.5492 0.277911 28.4321 0.200034 25.4166 0.172341C24.1479 0.168412 22.7773 0.109895 21.4839 0.0909287C20.1906 0.0719621 18.4219 0.0650176 16.8877 0.0576256L12.1375 0.0587608C11.2032 0.0549869 10.2935 0.0662465 9.38711 0.0719463C8.28716 -0.334816 7.90811 -0.430157 6.44033 -0.608366C5.93819 -0.674102 5.42743 -0.713332 4.96794 -0.721461C3.51089 -0.689305 1.68268 -0.82316 0.300975 -0.805438C-0.532764 -0.81418 -1.24023 -0.768993 -1.749 -0.674502C-2.19064 -0.600345 -2.69567 -0.541666 -3.25629 -0.499352C-4.792 -0.847327 -4.92734 -1.07333 -3.77213 -1.16127C-3.45915 -1.18172 -3.02803 -1.1754 -2.80202 -1.2187C-2.67234 -1.24507 -2.49518 -1.26015 -2.28466 -1.26276C-2.07414 -1.26537 -1.8361 -1.25543 -1.58918 -1.23372C-0.809888 -1.17678 -0.0794702 -1.16338 0.528788 -1.19489C1.10123 -1.23659 1.80291 -1.23492 2.5662 -1.19005C3.12708 -1.11967 3.62007 -1.21905 4.10513 -1.24776C4.59019 -1.27647 4.98824 -1.32805 5.74585 -1.2509C5.88458 -1.23554 6.02231 -1.22632 6.14848 -1.22394C6.27465 -1.22157 6.38589 -1.22611 6.47368 -1.2372C7.28738 -1.28689 8.25837 -1.28167 9.30782 -1.22197C10.9174 -1.16322 12.4276 -1.16102 13.7859 -1.21544C14.5991 -1.26305 15.2924 -1.34749 15.8387 -1.46546C15.9876 -1.50492 16.2087 -1.52858 16.4809 -1.53417C17.8476 -1.50956 19.3317 -1.41692 20.8373 -1.26224C21.4045 -1.20026 21.9709 -1.15123 22.5246 -1.1162C23.6624 -1.03839 24.7629 -0.994789 25.7935 -0.986686C27.2911 -0.985402 28.8503 -0.955463 30.4572 -0.897142C31.449 -0.864669 32.4046 -0.852683 33.3127 -0.861316C34.2461 -0.865386 35.2427 -0.840614 36.2799 -0.78758C37.3114 -0.744362 38.2203 -0.769263 38.8973 -0.859269C39.1202 -0.907771 39.2997 -0.965365 39.4325 -1.03098C37.9223 -1.24448 36.3604 -1.35299 35.0613 -1.33465C34.5678 -1.34879 34.1581 -1.33451 33.6381 -1.41767L33.6219 -1.38985C33.5184 -1.3718 33.3623 -1.36755 33.1833 -1.37789C33.0043 -1.38824 32.815 -1.41246 32.6513 -1.44595V-1.44595C32.7131 -1.55166 32.7717 -1.6518 32.814 -1.72413C33.8039 -1.71137 34.7649 -1.7124 35.6924 -1.72724C36.4741 -1.74858 37.5354 -1.56166 38.2121 -1.63202C39.532 -1.54403 40.3723 -1.66552 41.5559 -1.63046C42.7395 -1.59541 44.0431 -1.4796 45.2267 -1.44455C46.2595 -1.42531 47.2624 -1.42113 48.2296 -1.43202C48.5635 -1.44731 48.9484 -1.44373 49.3607 -1.42148C49.9402 -1.37963 50.4793 -1.37261 50.9161 -1.40125C51.3528 -1.42988 51.6696 -1.49301 51.8301 -1.58339C51.6789 -1.66805 51.4753 -1.77721 51.2404 -1.89029C51.6725 -1.98321 52.3287 -2.02233 53.1117 -2.00185L54.2182 -2.00633C54.5114 -2.00388 54.7355 -2.029 54.8442 -2.07649C54.9529 -2.12399 54.9379 -2.19022 54.8023 -2.2615C52.7043 -2.62031 52.6271 -2.65986 51.0873 -2.42907L49.0428 -2.53632L49.0772 -2.53796ZM76.7303 -1.55232L76.5745 -1.57187L76.7303 -1.55232ZM331.511 36.623L331.475 36.6842L331.514 36.6174L331.857 36.6604L331.879 36.6215L331.511 36.623ZM281.745 9.79899C281.261 9.73223 280.771 9.67084 280.28 9.61522C280.152 9.6066 280.032 9.60465 279.93 9.60954C279.828 9.61444 279.748 9.62602 279.695 9.64333C279.656 9.71009 279.93 9.75641 280.18 9.78769C280.494 9.82979 280.815 9.85655 281.11 9.86519C281.405 9.87384 281.663 9.86408 281.857 9.83689L282.138 9.81253L281.745 9.79899ZM32.2084 26.0709C32.5274 26.0821 32.8299 26.084 33.1084 26.0763C34.3441 26.0224 35.5271 25.9439 36.794 25.8938C38.3924 25.7668 40.2291 25.715 42.2352 25.7405C43.019 25.753 43.6811 25.7118 44.1443 25.6218C44.4217 25.5735 44.7796 25.5452 45.1963 25.5388L50.4998 25.3921C50.8277 25.3617 51.1111 25.319 51.3435 25.2651C50.8761 25.2064 50.5645 25.1673 50.3775 25.1439C49.9896 25.1373 49.6562 25.1551 49.4107 25.1957C49.147 25.2645 48.7012 25.2917 48.1619 25.2719C47.6175 25.2556 47.0866 25.2468 46.5719 25.2456C45.5999 25.249 44.6214 25.2636 43.6461 25.2726C43.2667 25.4639 42.1468 25.3771 41.1878 25.3583L40.4469 25.3668C38.0253 25.466 35.7121 25.6024 33.5185 25.7754C33.0945 25.8047 32.7293 25.8514 32.434 25.9141C32.3228 25.9629 32.2871 26.0239 32.3299 26.0921L32.1741 26.0725L32.2084 26.0709ZM140.349 44.3585C140.937 44.3715 141.549 44.3983 142.176 44.4384C142.659 44.4793 143.13 44.5042 143.571 44.5119C146.041 44.5548 148.615 44.6538 151.258 44.8077C151.604 44.831 151.936 44.8424 152.242 44.8415L154.405 44.8025C155.087 44.7805 155.1 44.7583 154.604 44.4631C154.192 44.4058 153.775 44.3535 153.357 44.3067C153.108 44.2754 152.703 44.2246 152.608 44.2724C152.03 44.4029 150.976 44.3184 150.089 44.2907C147.522 44.2194 144.874 44.1141 142.282 44.0277C141.734 44.0066 141.203 43.9959 140.695 43.9958C140.38 43.9914 140.093 43.9997 139.845 44.0205C139.772 44.0226 139.712 44.0288 139.667 44.0386C139.622 44.0484 139.594 44.0617 139.585 44.0774C139.576 44.0932 139.585 44.1112 139.613 44.1302C139.641 44.1491 139.687 44.1686 139.747 44.1874C139.959 44.2531 140.204 44.316 140.474 44.3741L140.349 44.3585ZM159.155 1.51677L161.684 1.48178C161.988 1.47802 162.245 1.43863 162.569 1.45548C164.301 1.50887 165.904 1.494 167.311 1.41149C167.79 1.37783 168.351 1.3711 168.962 1.39167C170.833 1.45264 172.598 1.45515 174.209 1.39912C175.25 1.38788 176.224 1.35012 177.118 1.2864C177.186 1.2716 177.229 1.25152 177.243 1.22752C177.257 1.20352 177.242 1.17616 177.199 1.14731C177.188 1.12908 177.157 1.10947 177.109 1.08984C177.061 1.0702 176.997 1.051 176.922 1.03356C176.846 1.01613 176.761 1.00087 176.671 0.988831C176.582 0.976794 176.49 0.968262 176.403 0.963836C175.275 0.877584 174.204 0.847536 173.277 0.876131C172.418 0.910345 171.493 0.920357 170.517 0.906009C169.583 0.902235 168.949 1.0138 167.794 0.928671C167.306 0.900639 166.875 0.909868 166.575 0.954811C165.97 1.0293 165.126 1.03345 164.193 0.966504C163.635 0.932624 163.102 0.918095 162.613 0.923471C161.428 0.947962 160.296 0.996963 159.198 1.04431C158.852 1.05526 158.481 1.05678 158.091 1.04881L152.593 0.956098C151.272 0.927658 149.954 0.893653 148.657 0.88025C147.597 0.851147 146.61 0.860262 145.732 0.907272C144.795 0.956683 143.774 0.976743 142.686 0.967072C140.998 0.994112 139.32 1.00445 137.482 1.00082C136.31 1.00305 135.11 0.995823 133.886 0.973549C133.266 0.944883 132.741 0.968228 132.409 1.03909C132.208 1.09743 131.734 1.0499 131.341 1.03636C129.242 0.905869 127.274 0.874949 125.574 0.945755C125.357 0.957294 125.118 0.961471 124.864 0.958215C123.227 0.955784 121.53 0.939968 119.958 0.939793C119.544 0.945294 119.155 0.96039 118.794 0.984888C118.833 1.02486 118.943 1.06818 119.102 1.10586C119.26 1.14355 119.455 1.17271 119.646 1.1873C121.133 1.29896 122.568 1.35795 123.892 1.36179C126.096 1.34756 128.404 1.37954 130.793 1.45738C132.647 1.53586 134.337 1.51934 135.738 1.40904C136.834 1.32675 138.258 1.35771 139.768 1.49662C140.414 1.56296 141.041 1.58949 141.563 1.57258C142.066 1.5504 142.642 1.55578 143.259 1.5884C144.561 1.65044 145.812 1.67922 146.989 1.67417C148.139 1.65133 149.213 1.58895 150.394 1.57002C151.576 1.55109 153.376 1.56194 154.833 1.52978C156.29 1.49762 157.731 1.49329 159.155 1.51677ZM54.3619 -1.73747C54.4954 -1.56545 54.968 -1.45838 55.4763 -1.41251C57.2289 -1.20883 58.9615 -1.12216 60.3832 -1.16704C61.1513 -1.22964 62.1751 -1.20554 63.2536 -1.09948C64.5095 -0.989229 65.6832 -0.970944 66.5681 -1.04785C66.7849 -1.06129 66.9509 -1.0897 67.0514 -1.13054C67.0709 -1.16393 67.1067 -1.22512 67.1132 -1.23625C67.0202 -1.26447 66.9062 -1.29062 66.7799 -1.31267C66.6536 -1.33473 66.5185 -1.35211 66.3849 -1.36347L60.5799 -1.56039L59.5683 -1.60372C57.7207 -1.71725 55.96 -1.76247 54.3619 -1.73747V-1.73747ZM65.7803 0.985269C66.6863 1.26617 66.6895 1.26059 67.1536 1.32481C69.3928 1.59154 71.6305 1.73552 73.6004 1.73962C74.0382 1.73881 74.4099 1.7117 74.6837 1.66056C74.8246 1.65363 74.9142 1.63161 74.9331 1.5993C74.952 1.56699 74.8986 1.52701 74.7845 1.48809L74.0641 1.29019C72.7557 1.20452 71.4661 1.13645 70.2031 1.08638C68.7325 1.02727 67.4294 1.02498 65.9049 1.0009L65.7803 0.985269ZM140.241 43.1147C141.085 43.5013 141.088 43.4957 142.502 43.5954C143.487 43.6661 144.442 43.7076 145.339 43.7186C146.436 43.7308 147.561 43.7525 148.654 43.7702C148.921 43.7826 149.147 43.7723 149.289 43.7416C149.431 43.7108 149.477 43.6616 149.42 43.6037C149.277 43.5407 149.052 43.4799 148.784 43.4309C148.515 43.382 148.217 43.3479 147.939 43.3342L147.342 43.325C146.618 43.3057 145.865 43.277 145.165 43.2728C144.711 43.2888 144.185 43.2764 143.628 43.2366C143.071 43.1967 142.498 43.1305 141.955 43.0431L140.241 43.1147ZM70.2882 -1.23198C70.5136 -1.16503 70.7686 -1.10091 71.0463 -1.04131C72.1215 -0.876142 73.2594 -0.782331 74.2371 -0.778271C74.6994 -0.768039 75.1222 -0.804571 75.5928 -0.751484C76.437 -0.680545 77.255 -0.642757 78.0029 -0.640166C78.0029 -0.640166 78.2126 -0.655656 78.2814 -0.658963L78.4246 -0.903759C78.0706 -0.960468 77.7014 -1.0068 77.334 -1.04061C76.1011 -1.10574 74.8896 -1.15027 73.6813 -1.20036C72.4731 -1.25045 72.0517 -1.27346 71.2616 -1.29497C70.9091 -1.28315 70.5831 -1.26205 70.2882 -1.23198ZM43.5892 29.201L45.2026 29.702C45.7248 29.7456 46.2125 29.7534 46.5917 29.7245C46.9709 29.6955 47.2207 29.6313 47.3032 29.5416C47.4361 29.4996 47.4494 29.4374 47.3403 29.3681C47.2312 29.2987 47.0082 29.2276 46.7182 29.1696C46.4389 29.1008 46.1202 29.0392 45.7816 28.9885C45.443 28.9378 45.0919 28.8991 44.75 28.8748L43.5892 29.201ZM57.0226 26.7063C55.9673 26.6213 54.958 26.5866 54.0718 26.6047C53.5134 26.6544 52.7568 26.6386 51.9572 26.5603C50.5029 26.4045 49.101 26.3613 48.0473 26.44C48.0473 26.44 48.0082 26.5067 47.8296 26.5261C47.651 26.5455 48.3594 26.5926 48.5152 26.6122C49.6578 26.66 50.807 26.6967 51.8004 26.7139C52.4171 26.7131 53.0695 26.7289 53.7462 26.761C54.6774 26.8104 55.5604 26.8264 56.3609 26.8084C56.3609 26.8084 56.6706 26.7935 57.0194 26.7118L57.0226 26.7063ZM169.721 0.609016C169.217 0.514653 168.67 0.43796 168.122 0.384696C167.574 0.331432 167.038 0.30298 166.556 0.301465C166.186 0.296541 165.887 0.321455 165.706 0.372269C165.525 0.423082 165.472 0.496896 165.555 0.582035C165.929 0.628956 166.428 0.691515 166.708 0.726705C167.68 0.723262 168.51 0.678015 169.721 0.609016ZM264.073 8.56089C263.669 8.48493 263.223 8.42685 262.788 8.39329C262.352 8.35972 261.943 8.35203 261.609 8.37109C261.437 8.37936 261.554 8.46567 261.524 8.51574C261.505 8.5271 261.505 8.54121 261.525 8.55662C261.544 8.57203 261.583 8.58817 261.635 8.60333C261.688 8.61849 261.753 8.63212 261.824 8.64279C261.896 8.65347 261.97 8.6608 262.04 8.66401C262.478 8.69674 262.892 8.70647 263.245 8.69236C263.598 8.67825 263.878 8.64073 264.06 8.58314L264.073 8.56089ZM270.395 9.64679C270.332 9.60196 270.199 9.55525 270.02 9.5152C269.841 9.47515 269.627 9.44445 269.419 9.42875C269.05 9.42663 268.716 9.43906 268.427 9.46557C268.114 9.48601 268.339 9.61579 268.763 9.69278C268.942 9.72369 269.133 9.7478 269.322 9.76319C269.511 9.77858 269.691 9.78483 269.849 9.78145C270.007 9.77806 270.138 9.76513 270.231 9.74369C270.325 9.72224 270.379 9.69287 270.389 9.65792L270.395 9.64679ZM86.6995 -0.755217C85.7564 -0.915373 85.0304 -0.875082 84.2319 -0.939452C83.4334 -1.00382 83.2366 -1.01059 83.3436 -0.907591C83.4506 -0.804588 83.998 -0.825477 84.3407 -0.782467C84.8039 -0.725395 85.2697 -0.692624 85.6863 -0.687811C86.1029 -0.682998 86.4537 -0.706336 86.6995 -0.755217V-0.755217ZM283.239 26.3435C282.739 26.3076 282.25 26.2822 281.778 26.2677C281.716 26.2826 281.677 26.3021 281.663 26.325C281.65 26.348 281.662 26.3739 281.7 26.4013C281.7 26.4013 282.02 26.4832 282.207 26.5067C282.895 26.5871 282.929 26.4719 283.239 26.3435V26.3435ZM353.847 41.2652C354.185 41.3733 354.343 41.4468 354.614 41.4987C354.738 41.5167 354.866 41.5298 354.99 41.537C355.113 41.5442 355.227 41.5453 355.325 41.5402C355.444 41.5091 355.472 41.4614 355.403 41.4067C355.403 41.4067 355.059 41.3097 354.928 41.3052C354.553 41.2823 354.191 41.2689 353.847 41.2652V41.2652ZM70.6453 -1.6709C69.9286 -1.76084 69.2431 -1.84686 68.7469 -1.74191C69.8849 -1.62897 69.8849 -1.62896 70.6453 -1.6709ZM82.2531 -0.644315C81.5294 -0.836647 81.1047 -0.8541 80.7573 -0.832002C80.6835 -0.826435 80.6347 -0.81403 80.6182 -0.796668C80.6017 -0.779307 80.6184 -0.757932 80.6659 -0.735775C80.7135 -0.713619 80.7891 -0.69189 80.8814 -0.673872C80.9738 -0.655854 81.0779 -0.642527 81.1778 -0.635913C81.5552 -0.630377 81.9151 -0.633188 82.2531 -0.644315V-0.644315ZM119.499 -0.562986C119.516 -0.590804 119.535 -0.624185 119.348 -0.647645C119.299 -0.659555 119.242 -0.669796 119.182 -0.677346C119.121 -0.684896 119.061 -0.689483 119.005 -0.69065C119.005 -0.69065 118.986 -0.657267 118.973 -0.635013L119.499 -0.562986ZM145.364 45.6208L144.948 45.6462L145.135 45.6696L145.628 45.6838L145.364 45.6208ZM291.921 9.21272C291.766 9.19317 291.61 9.17362 291.587 9.21256C291.554 9.21859 291.534 9.2273 291.528 9.23795C291.521 9.24859 291.529 9.26087 291.551 9.27376C291.551 9.27376 291.769 9.30113 291.863 9.31286L291.921 9.21272ZM267.657 9.5242C267.555 9.52196 267.462 9.52458 267.385 9.53187C267.385 9.53187 267.366 9.56525 267.366 9.56525L267.677 9.60435L267.657 9.5242ZM56.1997 17.4779C56.0793 17.4576 55.9518 17.4416 55.8258 17.431L55.6699 17.4114C55.6699 17.4114 55.8373 17.4683 55.9308 17.48C56.0243 17.4917 56.0997 17.4773 56.1997 17.4779Z" fill="#DF6951"/>
</g>
</svg>
